# xmcd
# Copyright (C) 1995-1998 Ti Kan
#
# Track frame offsets:
#       150
#       25270
#       38942
#       52308
#       61850
#
# Disc length: 976 seconds
#
# Revision: 0
# Processed by: cddbd v1.5.2PL0 Copyright (c) Steve Scherf et al.
# Submitted via: CD-Import v1.0
#
DISCID=4103ce05
DTITLE=Sopin - 
DYEAR=1900
DGENRE=
TTITLE0=Christus Resurgens Byrd
TTITLE1=Ich Weiss Dass Mein Erlöser Telemann
TTITLE2=Motet Christus Resurgens Savall
TTITLE3=A Sacred Place Ost Sanctum
TTITLE4=Towers Of The Void Ost Red Riding Hood
EXTD=
EXTT0=
EXTT1=
EXTT2=
EXTT3=
EXTT4=
PLAYORDER=
